<svg width="8" height="14" viewBox="0 0 8 14" fill="none" xmlns="http://www.w3.org/2000/svg">
<path d="M0.491366 6.28955L6.15137 0.639548C6.24433 0.54582 6.35493 0.471426 6.47679 0.420657C6.59865 0.369888 6.72935 0.34375 6.86137 0.34375C6.99338 0.34375 7.12408 0.369888 7.24594 0.420657C7.3678 0.471426 7.4784 0.54582 7.57137 0.639548C7.75762 0.826911 7.86216 1.08036 7.86216 1.34455C7.86216 1.60873 7.75762 1.86219 7.57137 2.04955L2.62137 7.04955L7.57137 11.9995C7.75762 12.1869 7.86216 12.4404 7.86216 12.7045C7.86216 12.9687 7.75762 13.2222 7.57137 13.4095C7.47875 13.504 7.36831 13.5792 7.24643 13.6307C7.12456 13.6822 6.99367 13.709 6.86137 13.7095C6.72906 13.709 6.59818 13.6822 6.4763 13.6307C6.35443 13.5792 6.24398 13.504 6.15137 13.4095L0.491366 7.75955C0.389862 7.66591 0.308853 7.55225 0.253446 7.42576C0.198038 7.29926 0.169434 7.16265 0.169434 7.02455C0.169434 6.88645 0.198038 6.74984 0.253446 6.62334C0.308853 6.49684 0.389862 6.38319 0.491366 6.28955Z" fill="#F5F3E9"/>
</svg>
