<svg width="64" height="64" viewBox="0 0 64 64" fill="none" xmlns="http://www.w3.org/2000/svg">
<path d="M32.0007 0L58.4407 12H62.0007C62.5311 12 63.0398 12.2107 63.4149 12.5858C63.79 12.9609 64.0007 13.4696 64.0007 14V22C64.0007 22.5304 63.79 23.0391 63.4149 23.4142C63.0398 23.7893 62.5311 24 62.0007 24H60.0007V52C60.4474 52.0003 60.8811 52.1502 61.2327 52.4257C61.5842 52.7011 61.8335 53.0864 61.9407 53.52L63.9407 61.52C64.0152 61.8146 64.0212 62.1224 63.9584 62.4197C63.8956 62.717 63.7656 62.996 63.5784 63.2354C63.3912 63.4747 63.1516 63.668 62.8782 63.8006C62.6047 63.9331 62.3046 64.0013 62.0007 64H2.0007C1.69683 64.0013 1.39668 63.9331 1.12322 63.8006C0.849764 63.668 0.610255 63.4747 0.423023 63.2354C0.235792 62.996 0.105801 62.717 0.0430016 62.4197C-0.0197981 62.1224 -0.0137426 61.8146 0.0607047 61.52L2.0607 53.52C2.16854 53.0867 2.41797 52.7019 2.76942 52.4265C3.12088 52.1512 3.55422 52.001 4.0007 52V24H2.0007C1.47027 24 0.961564 23.7893 0.586491 23.4142C0.211418 23.0391 0.000704742 22.5304 0.000704742 22V14C0.000704742 13.4696 0.211418 12.9609 0.586491 12.5858C0.961564 12.2107 1.47027 12 2.0007 12H5.5607L32.0007 0ZM15.1087 12H48.8967L32.0007 4L15.1087 12ZM8.0007 24V52H12.0007V24H8.0007ZM16.0007 24V52H26.0007V24H16.0007ZM30.0007 24V52H34.0007V24H30.0007ZM38.0007 24V52H48.0007V24H38.0007ZM52.0007 24V52H56.0007V24H52.0007ZM60.0007 20V16H4.0007V20H60.0007ZM58.4407 56H5.5607L4.5607 60H59.4407L58.4407 56Z" fill="#294C21"/>
</svg>
