<svg width="15" height="14" viewBox="0 0 15 14" fill="none" xmlns="http://www.w3.org/2000/svg">
<g clip-path="url(#clip0_118_7224)">
<path d="M12.4648 3.0625H10.5861L10.3674 2.40625C10.2619 2.0876 10.0587 1.81035 9.78647 1.61396C9.51428 1.41758 9.18707 1.31209 8.85144 1.3125H6.14856C5.81302 1.31224 5.48594 1.41781 5.21385 1.61418C4.94176 1.81054 4.73853 2.08771 4.63306 2.40625L4.41388 3.0625H2.53525C2.11164 3.06296 1.70552 3.23145 1.40598 3.53098C1.10645 3.83052 0.937963 4.23664 0.9375 4.66025V11.0915C0.938426 11.5148 1.10711 11.9205 1.4066 12.2196C1.70608 12.5188 2.11195 12.687 2.53525 12.6875H12.4665C12.8898 12.6866 13.2955 12.5179 13.5946 12.2184C13.8938 11.9189 14.062 11.5131 14.0625 11.0898V4.6585C14.0616 4.2352 13.8929 3.82952 13.5934 3.53036C13.2939 3.23121 12.8881 3.06296 12.4648 3.0625ZM13.1875 11.0898C13.1873 11.2814 13.111 11.4651 12.9756 11.6006C12.8401 11.736 12.6564 11.8123 12.4648 11.8125H2.53525C2.34364 11.8123 2.15994 11.736 2.02444 11.6006C1.88895 11.4651 1.81273 11.2814 1.8125 11.0898V4.6585C1.81319 4.46719 1.88962 4.28394 2.02506 4.14883C2.1605 4.01371 2.34394 3.93773 2.53525 3.9375H4.72931C4.8211 3.93743 4.91054 3.9085 4.98497 3.85479C5.0594 3.80109 5.11506 3.72533 5.14406 3.63825L5.463 2.68144C5.51089 2.53752 5.6029 2.41235 5.72596 2.32368C5.84902 2.23502 5.99689 2.18737 6.14856 2.1875H8.85144C9.00318 2.18734 9.15112 2.23502 9.2742 2.32378C9.39728 2.41254 9.48924 2.53784 9.537 2.68188L9.85594 3.63825C9.88494 3.72533 9.9406 3.80109 10.015 3.85479C10.0895 3.9085 10.1789 3.93743 10.2707 3.9375H12.4648C12.6564 3.93773 12.8401 4.01395 12.9756 4.14945C13.111 4.28494 13.1873 4.46864 13.1875 4.66025V11.0898Z" fill="#294C21"/>
<path d="M7.5 4.375C6.85103 4.375 6.21664 4.56744 5.67704 4.92799C5.13744 5.28854 4.71687 5.801 4.46852 6.40057C4.22017 7.00014 4.15519 7.65989 4.2818 8.29639C4.40841 8.93289 4.72092 9.51755 5.17981 9.97644C5.6387 10.4353 6.22336 10.7478 6.85986 10.8745C7.49636 11.0011 8.15611 10.9361 8.75568 10.6877C9.35525 10.4394 9.86771 10.0188 10.2283 9.47921C10.5888 8.93962 10.7813 8.30522 10.7813 7.65625C10.7803 6.78629 10.4343 5.95223 9.81917 5.33708C9.20402 4.72193 8.36996 4.37593 7.5 4.375ZM7.5 10.0625C7.02409 10.0625 6.55887 9.92138 6.16316 9.65697C5.76745 9.39257 5.45904 9.01677 5.27692 8.57708C5.09479 8.1374 5.04714 7.65358 5.13999 7.18681C5.23283 6.72005 5.46201 6.29129 5.79853 5.95477C6.13505 5.61825 6.5638 5.38908 7.03057 5.29624C7.49733 5.20339 7.98115 5.25104 8.42083 5.43317C8.86052 5.61529 9.23632 5.9237 9.50072 6.31941C9.76513 6.71512 9.90625 7.18034 9.90625 7.65625C9.90556 8.29421 9.65182 8.90585 9.20071 9.35696C8.7496 9.80807 8.13796 10.0618 7.5 10.0625Z" fill="#294C21"/>
<path d="M11.875 5.6875C12.1166 5.6875 12.3125 5.49162 12.3125 5.25C12.3125 5.00838 12.1166 4.8125 11.875 4.8125C11.6334 4.8125 11.4375 5.00838 11.4375 5.25C11.4375 5.49162 11.6334 5.6875 11.875 5.6875Z" fill="#294C21"/>
</g>
<defs>
<clipPath id="clip0_118_7224">
<rect width="14" height="14" fill="white" transform="translate(0.5)"/>
</clipPath>
</defs>
</svg>
