<svg width="20" height="20" viewBox="0 0 20 20" fill="none" xmlns="http://www.w3.org/2000/svg">
<path d="M1 6.78631C1 5.79221 1.80588 4.98633 2.79998 4.98633H17.1999C18.194 4.98633 18.9998 5.79221 18.9998 6.78631V8.27559C18.9998 9.07048 18.4784 9.77125 17.7171 9.99966L11.0344 12.0045C10.3596 12.2069 9.64025 12.2069 8.96548 12.0045L2.28277 9.99966C1.5214 9.77125 1 9.07047 1 8.27559V6.78631Z" stroke="#EF813E" stroke-width="1.7"/>
<path d="M9.99976 9.6151L9.99976 8.07227" stroke="#EF813E" stroke-width="1.7" stroke-linecap="round" stroke-linejoin="round"/>
<path d="M1.75024 9.61523L1.75024 14.5009C1.75024 16.4891 3.36201 18.1008 5.35021 18.1008H14.6501C16.6383 18.1008 18.2501 16.4891 18.2501 14.5009V9.61523" stroke="#EF813E" stroke-width="1.7"/>
<path d="M12.9997 4.98606V3.70037C12.9997 2.70627 12.1938 1.90039 11.1997 1.90039H8.79974C7.80564 1.90039 6.99976 2.70627 6.99976 3.70037L6.99976 4.98606" stroke="#EF813E" stroke-width="1.7"/>
</svg>
