<svg width="12" height="8" viewBox="0 0 12 8" fill="none" xmlns="http://www.w3.org/2000/svg">
<path d="M5.39868 7.06571L0.690346 2.34904C0.612239 2.27157 0.550244 2.1794 0.507937 2.07785C0.46563 1.97631 0.443848 1.86738 0.443848 1.75737C0.443848 1.64736 0.46563 1.53844 0.507937 1.43689C0.550244 1.33534 0.612239 1.24318 0.690346 1.16571C0.846482 1.0105 1.05769 0.92338 1.27785 0.92338C1.498 0.92338 1.70921 1.0105 1.86535 1.16571L6.03201 5.29071L10.157 1.16571C10.3131 1.0105 10.5244 0.92338 10.7445 0.92338C10.9647 0.92338 11.1759 1.0105 11.332 1.16571C11.4108 1.24289 11.4734 1.33492 11.5163 1.43649C11.5592 1.53805 11.5816 1.64712 11.582 1.75737C11.5816 1.86763 11.5592 1.9767 11.5163 2.07826C11.4734 2.17982 11.4108 2.27186 11.332 2.34904L6.62368 7.06571C6.54564 7.15029 6.45093 7.2178 6.34552 7.26397C6.2401 7.31015 6.12626 7.33398 6.01118 7.33398C5.89609 7.33398 5.78226 7.31015 5.67684 7.26397C5.57142 7.2178 5.47672 7.15029 5.39868 7.06571Z" fill="white"/>
</svg>
