<svg width="20" height="20" viewBox="0 0 20 20" fill="none" xmlns="http://www.w3.org/2000/svg">
<path d="M17.5001 11.666C17.2791 11.666 17.0671 11.7538 16.9108 11.9101C16.7545 12.0664 16.6667 12.2783 16.6667 12.4993V15.8327C16.6667 16.0537 16.579 16.2657 16.4227 16.4219C16.2664 16.5782 16.0544 16.666 15.8334 16.666H4.16675C3.94573 16.666 3.73377 16.5782 3.57749 16.4219C3.42121 16.2657 3.33341 16.0537 3.33341 15.8327V12.4993C3.33341 12.2783 3.24562 12.0664 3.08934 11.9101C2.93306 11.7538 2.7211 11.666 2.50008 11.666C2.27907 11.666 2.06711 11.7538 1.91083 11.9101C1.75455 12.0664 1.66675 12.2783 1.66675 12.4993V15.8327C1.66675 16.4957 1.93014 17.1316 2.39898 17.6005C2.86782 18.0693 3.50371 18.3327 4.16675 18.3327H15.8334C16.4965 18.3327 17.1323 18.0693 17.6012 17.6005C18.07 17.1316 18.3334 16.4957 18.3334 15.8327V12.4993C18.3334 12.2783 18.2456 12.0664 18.0893 11.9101C17.9331 11.7538 17.7211 11.666 17.5001 11.666ZM9.40841 13.091C9.48767 13.1669 9.58112 13.2264 9.68342 13.266C9.78316 13.3101 9.89102 13.3329 10.0001 13.3329C10.1091 13.3329 10.217 13.3101 10.3167 13.266C10.419 13.2264 10.5125 13.1669 10.5917 13.091L13.9251 9.75768C14.082 9.60076 14.1702 9.38793 14.1702 9.16602C14.1702 8.9441 14.082 8.73127 13.9251 8.57435C13.7682 8.41743 13.5553 8.32927 13.3334 8.32927C13.1115 8.32927 12.8987 8.41743 12.7417 8.57435L10.8334 10.491V2.49935C10.8334 2.27834 10.7456 2.06637 10.5893 1.91009C10.4331 1.75381 10.2211 1.66602 10.0001 1.66602C9.77907 1.66602 9.56711 1.75381 9.41083 1.91009C9.25455 2.06637 9.16675 2.27834 9.16675 2.49935V10.491L7.25842 8.57435C7.18072 8.49665 7.08847 8.43502 6.98696 8.39297C6.88544 8.35092 6.77663 8.32927 6.66675 8.32927C6.55687 8.32927 6.44806 8.35092 6.34654 8.39297C6.24502 8.43502 6.15278 8.49665 6.07508 8.57435C5.99738 8.65205 5.93575 8.74429 5.8937 8.84581C5.85165 8.94733 5.83001 9.05613 5.83001 9.16602C5.83001 9.2759 5.85165 9.38471 5.8937 9.48622C5.93575 9.58774 5.99738 9.67998 6.07508 9.75768L9.40841 13.091Z" fill="#2A2A2A"/>
</svg>
