<svg width="16" height="16" viewBox="0 0 16 16" fill="none" xmlns="http://www.w3.org/2000/svg">
<path d="M2.89366 13.7137C2.80965 13.7136 2.7266 13.6953 2.64977 13.6601C2.57295 13.6249 2.50403 13.5735 2.44741 13.5092C2.38977 13.4455 2.34579 13.3698 2.31834 13.2872C2.2909 13.2047 2.28062 13.117 2.28817 13.03L2.43652 11.3401L9.28937 4.24307L11.431 6.46113L4.57993 13.5575L2.94875 13.7112C2.93044 13.713 2.91205 13.7138 2.89366 13.7137ZM11.8584 6.01764L9.71745 3.79959L11.0017 2.46913C11.0579 2.41081 11.1247 2.36454 11.1982 2.33297C11.2717 2.3014 11.3505 2.28516 11.4301 2.28516C11.5096 2.28516 11.5884 2.3014 11.6619 2.33297C11.7354 2.36454 11.8022 2.41081 11.8584 2.46913L13.1427 3.79959C13.199 3.85784 13.2436 3.92703 13.2741 4.00318C13.3046 4.07933 13.3202 4.16095 13.3202 4.24339C13.3202 4.32582 13.3046 4.40745 13.2741 4.4836C13.2436 4.55975 13.199 4.62893 13.1427 4.68719L11.859 6.01702L11.8584 6.01764Z" fill="#2A2A2A"/>
</svg>
