<svg width="33" height="32" viewBox="0 0 33 32" fill="none" xmlns="http://www.w3.org/2000/svg">
<g clip-path="url(#clip0_496_3051)">
<path d="M16.5 29.6643C16.3437 29.6643 16.1874 29.6111 16.0599 29.5049C14.8346 28.4838 13.6762 27.5364 12.556 26.6203C8.86162 23.5989 5.94356 21.2125 3.85944 18.8353C1.53606 16.1854 0.5 13.8152 0.5 11.1502C0.5 8.78506 1.28363 6.59363 2.70656 4.97956C4.20944 3.27481 6.34294 2.33594 8.714 2.33594C11.3594 2.33594 13.6637 3.55356 15.3776 5.85725C15.8567 6.50112 16.2254 7.14331 16.5 7.69681C16.7746 7.14331 17.1434 6.50112 17.6224 5.85725C19.3364 3.55362 21.6406 2.33594 24.2861 2.33594C26.6572 2.33594 28.7906 3.27481 30.2935 4.97956C31.7164 6.59356 32.5 8.785 32.5 11.1502C32.5 13.8152 31.4639 16.1854 29.1406 18.8354C27.0564 21.2126 24.1383 23.5991 20.4439 26.6205C19.3237 27.5366 18.1654 28.4839 16.9401 29.5049C16.8126 29.6111 16.6563 29.6643 16.5 29.6643ZM8.714 3.71088C4.22412 3.71088 1.875 7.45331 1.875 11.1502C1.875 13.4574 2.80588 15.548 4.89325 17.9289C6.90231 20.2203 9.78137 22.5749 13.4264 25.556C14.4143 26.3639 15.4318 27.1961 16.5 28.0827C17.5682 27.1961 18.5855 26.3641 19.5734 25.5562C23.2185 22.5751 26.0977 20.2204 28.1067 17.929C30.1941 15.548 31.125 13.4574 31.125 11.1502C31.125 7.45331 28.7759 3.71088 24.2861 3.71088C22.0742 3.71088 20.2118 4.698 18.7503 6.64481C17.6211 8.14906 17.1649 9.68762 17.1603 9.703C17.0749 9.99644 16.8057 10.1987 16.5002 10.1987C16.4997 10.1987 16.4994 10.1987 16.4991 10.1987C16.1934 10.1982 15.9247 9.9965 15.8396 9.703C15.8351 9.68762 15.3789 8.14906 14.2497 6.64481C12.7882 4.698 10.9257 3.71088 8.714 3.71088Z" fill="#9C9C9C"/>
</g>
<defs>
<clipPath id="clip0_496_3051">
<rect width="32" height="32" fill="white" transform="translate(0.5)"/>
</clipPath>
</defs>
</svg>
