<svg width="14" height="13" viewBox="0 0 14 13" fill="none" xmlns="http://www.w3.org/2000/svg">
<path d="M1.1665 2.33464C1.1665 1.6903 1.68884 1.16797 2.33317 1.16797H11.6665C12.3108 1.16797 12.8332 1.6903 12.8332 2.33464V2.81152C12.8332 3.25478 12.665 3.68152 12.3625 4.00557L9.06361 7.54012C8.86198 7.75615 8.74984 8.04065 8.74984 8.33616V10.7241C8.74984 10.9451 8.625 11.1471 8.42738 11.2459L6.09405 12.4125C5.70619 12.6065 5.24984 12.3244 5.24984 11.8908V8.33616C5.24984 8.04065 5.1377 7.75615 4.93607 7.54012L1.63716 4.00557C1.33471 3.68153 1.1665 3.25478 1.1665 2.81152V2.33464Z" stroke="#2A2A2A" stroke-width="0.875"/>
</svg>
