<svg width="12" height="16" viewBox="0 0 12 16" fill="none" xmlns="http://www.w3.org/2000/svg">
<path d="M3.6452 5.59581L3.6437 5.59703L3.64227 5.59842L3.6452 5.59581ZM10.2813 5.47146C10.2349 5.42676 10.1834 5.38764 10.1279 5.35492C10.0494 5.30869 9.96221 5.27907 9.87176 5.26788C9.78131 5.25669 9.68953 5.26417 9.60209 5.28986C9.51465 5.31555 9.43341 5.3589 9.36339 5.41724C9.29337 5.47557 9.23606 5.54765 9.195 5.62901C8.96535 6.08147 8.64863 6.48414 8.263 6.81391C8.32197 6.48164 8.35171 6.14485 8.35187 5.80739C8.35311 4.78079 8.08228 3.7722 7.56697 2.8843C7.05166 1.99641 6.31027 1.26092 5.41827 0.752727C5.32001 0.697025 5.20921 0.6672 5.09626 0.66605C4.98332 0.664901 4.87193 0.692464 4.77256 0.746154C4.67318 0.799845 4.58908 0.877901 4.52813 0.973C4.46719 1.0681 4.4314 1.17712 4.42413 1.28984C4.38683 1.92196 4.22158 2.53992 3.93839 3.10628C3.65521 3.67265 3.25999 4.17563 2.77669 4.58475L2.62304 4.70975C2.11765 5.04981 1.6703 5.46901 1.29817 5.95128C0.719717 6.68002 0.319004 7.53351 0.127812 8.44407C-0.0633806 9.35462 -0.0397929 10.2972 0.196704 11.1971C0.433201 12.0969 0.876103 12.9293 1.49029 13.6282C2.10447 14.3271 2.87304 14.8733 3.73505 15.2234C3.83626 15.2648 3.94609 15.2806 4.05486 15.2695C4.16363 15.2583 4.26799 15.2206 4.35873 15.1596C4.44948 15.0986 4.52382 15.0163 4.5752 14.9198C4.62658 14.8232 4.65342 14.7156 4.65335 14.6062C4.65288 14.5355 4.64168 14.4653 4.62015 14.3979C4.471 13.8372 4.42805 13.2536 4.49352 12.6772C5.12435 13.867 6.13695 14.8101 7.36852 15.3549C7.51885 15.4222 7.68879 15.4312 7.84541 15.3803C8.81845 15.0663 9.69503 14.5086 10.3918 13.7604C11.0887 13.0121 11.5826 12.0981 11.8267 11.1052C12.0707 10.1123 12.0569 9.07345 11.7864 8.08741C11.5159 7.10137 10.9978 6.20086 10.2813 5.47146Z" fill="#F6A623"/>
</svg>
