<svg width="20" height="20" viewBox="0 0 20 20" fill="none" xmlns="http://www.w3.org/2000/svg">
<path fill-rule="evenodd" clip-rule="evenodd" d="M16.6667 9.99935C16.6667 13.6812 13.682 16.666 10.0001 16.666C6.31818 16.666 3.33341 13.6812 3.33341 9.99935C3.33341 6.31745 6.31818 3.33268 10.0001 3.33268C13.682 3.33268 16.6667 6.31745 16.6667 9.99935ZM18.3334 9.99935C18.3334 14.6017 14.6025 18.3327 10.0001 18.3327C5.39771 18.3327 1.66675 14.6017 1.66675 9.99935C1.66675 5.39698 5.39771 1.66602 10.0001 1.66602C14.6025 1.66602 18.3334 5.39698 18.3334 9.99935Z" fill="#2A2A2A"/>
<path d="M9.7855 12.5566C9.27193 12.5566 8.8562 12.9846 8.8562 13.4981C8.8562 13.9995 9.25971 14.4397 9.7855 14.4397C10.3113 14.4397 10.727 13.9995 10.727 13.4981C10.727 12.9846 10.299 12.5566 9.7855 12.5566Z" fill="#2A2A2A"/>
<path d="M9.70489 5.63867C8.17841 5.63867 7.5 6.73818 7.5 7.34874C7.5 7.78972 7.87313 7.99327 8.17841 7.99327C8.78901 7.99327 8.54027 7.12258 9.69359 7.12258C10.2589 7.12258 10.7112 7.37136 10.7112 7.89149C10.7112 8.50206 10.078 8.85258 9.70489 9.16917C9.37696 9.4518 8.94732 9.91543 8.94732 10.8879C8.94732 11.4758 9.23003 11.875 9.69359 11.875C10.2476 11.875 10.3161 11.4172 10.3161 11.2023C10.3161 10.6144 10.6498 10.0413 11.2717 9.5551C11.5769 9.31766 12.0833 8.56309 12.0833 7.50024C12.0833 6.43738 11.1522 5.63867 9.70489 5.63867Z" fill="#2A2A2A"/>
</svg>
