<svg width="18" height="18" viewBox="0 0 18 18" fill="none" xmlns="http://www.w3.org/2000/svg">
<path d="M1.08325 8.11534C1.08325 7.09519 1.5504 6.1312 2.3511 5.49906L6.93444 1.88064C8.14547 0.924567 9.85437 0.924566 11.0654 1.88064L15.6487 5.49906C16.4494 6.1312 16.9166 7.09518 16.9166 8.11534V13.5833C16.9166 15.4243 15.4242 16.9167 13.5833 16.9167H12.3333C11.873 16.9167 11.4999 16.5436 11.4999 16.0833V13.5833C11.4999 12.6629 10.7537 11.9167 9.83325 11.9167H8.16659C7.24611 11.9167 6.49992 12.6629 6.49992 13.5833V16.0833C6.49992 16.5436 6.12682 16.9167 5.66659 16.9167H4.41658C2.57564 16.9167 1.08325 15.4243 1.08325 13.5833L1.08325 8.11534Z" stroke="#EF813E" stroke-width="2"/>
</svg>
