<svg width="32" height="32" viewBox="0 0 32 32" fill="none" xmlns="http://www.w3.org/2000/svg">
<g clip-path="url(#clip0_1192_7421)">
<path d="M31.7388 21.9588C31.9187 19.9812 31.3086 18.0104 30.0183 16.4652C29.1074 15.3745 27.9256 14.5799 26.6115 14.1452L26.8138 13.3212C27.0013 12.5787 26.8883 11.8076 26.4959 11.1501C26.1034 10.4925 25.4783 10.0271 24.7358 9.83969L23.704 9.57919L25.8905 0.854703C25.9828 0.486391 25.7591 0.113017 25.3908 0.0207042C25.0223 -0.0713582 24.6491 0.152204 24.5568 0.520453L22.3709 9.24256L21.3063 8.97381C20.5638 8.78613 19.7927 8.89925 19.1351 9.29169C18.4776 9.68419 18.0122 10.3092 17.8237 11.0561L16.929 14.7001L18.2643 15.028L19.1579 11.3883C19.2555 11.0019 19.4976 10.6766 19.8398 10.4724C20.1821 10.2681 20.5833 10.2094 20.9697 10.307L22.0366 10.5764L21.0611 14.4689C20.5313 14.7177 20.0275 15.0296 19.5584 15.4047L20.4172 16.4785C21.5124 15.6026 22.8365 15.1396 24.2463 15.1396C26.0725 15.1396 27.7916 15.944 28.9628 17.3466C30.0121 18.6031 30.511 20.2033 30.3715 21.8102H27.5456C27.6676 21.0437 27.5146 20.2465 27.0911 19.5484C26.4839 18.5474 25.4204 17.9499 24.2463 17.9499C23.3938 17.9499 22.5868 18.2672 21.9741 18.8434L22.916 19.845C23.1684 19.6077 23.604 19.3249 24.2463 19.3249C24.9459 19.3249 25.5543 19.6663 25.9154 20.2615C26.2065 20.7414 26.2823 21.2975 26.1391 21.8102H23.4143L22.6707 21.398L22.0346 21.8102H19.4444L18.8248 21.4438L18.0413 21.8102H14.227L13.3827 21.4849L12.8236 21.8102H10.2329L9.50011 21.5672L8.85329 21.8102H6.40242C6.25955 21.2995 6.33486 20.7453 6.62467 20.267C6.98755 19.6683 7.59667 19.3249 8.29586 19.3249C8.72998 19.3249 9.13529 19.4577 9.46786 19.7089L10.2965 18.6115C9.72329 18.1787 9.03148 17.9499 8.29586 17.9499C7.12199 17.9499 6.05761 18.5497 5.44874 19.5544C5.02668 20.2509 4.87418 21.046 4.9958 21.8102H2.16993C2.03056 20.2042 2.52943 18.6047 3.57837 17.3486C4.75062 15.9448 6.47011 15.1397 8.2958 15.1397C9.65354 15.1397 10.9378 15.5712 12.0098 16.3877L12.8429 15.2939C11.5295 14.2935 9.9571 13.7647 8.2958 13.7647C8.02048 13.7647 7.74723 13.7798 7.47692 13.8092C7.46148 13.6829 7.45336 13.5553 7.45336 13.4269C7.45336 11.7127 8.84792 10.3182 10.5621 10.3182C12.2763 10.3182 13.6708 11.7127 13.6708 13.4269C13.6708 13.8944 13.5698 14.3436 13.3706 14.7617L14.6119 15.3531C14.8998 14.7487 15.0458 14.1007 15.0458 13.4269C15.0458 10.9545 13.0344 8.94319 10.562 8.94319C8.08967 8.94319 6.0783 10.9546 6.0783 13.4269C6.0783 13.6477 6.09486 13.8671 6.12674 14.0837C4.73424 14.5026 3.47949 15.3217 2.52287 16.4673C1.26525 17.9733 0.653499 19.8836 0.790186 21.8102H0.687499C0.307812 21.8102 0 22.118 0 22.4977V23.9361C0 26.2132 1.85256 28.0658 4.12968 28.0658H4.42518L4.8753 31.4045C4.9213 31.7456 5.21243 32.0001 5.55661 32.0001H26.4432C26.7874 32.0001 27.0786 31.7456 27.1245 31.4045L27.5746 28.0658H27.8701C30.1473 28.0658 31.9998 26.2132 31.9998 23.9361V22.4977C32.0001 22.279 31.8977 22.0847 31.7388 21.9588ZM22.6108 13.9414L23.3698 10.9129L24.3993 11.1728C24.7857 11.2704 25.1109 11.5126 25.3152 11.8547C25.5194 12.1969 25.5782 12.5982 25.4796 12.9889L25.272 13.8344C24.9346 13.7882 24.592 13.7645 24.2463 13.7645C23.6882 13.7646 23.1412 13.8248 22.6108 13.9414ZM25.8423 30.625H6.1578L5.81274 28.0657H26.1874L25.8423 30.625ZM30.6251 23.936C30.6251 25.4549 29.3893 26.6907 27.8704 26.6907H4.1298C2.61087 26.6907 1.37512 25.4549 1.37512 23.936V23.185H30.6251V23.936Z" fill="#9C9C9C"/>
<path d="M10.2325 21.8104C10.0988 20.2701 10.5762 18.7354 11.5816 17.5273C12.7115 16.1694 14.3708 15.3906 16.134 15.3906C17.8955 15.3906 19.5527 16.167 20.6806 17.5207C21.6878 18.7295 22.1669 20.2666 22.0344 21.8104H23.414C23.5438 19.9466 22.9523 18.0992 21.7369 16.6405C20.347 14.9724 18.3048 14.0156 16.134 14.0156C13.9612 14.0156 11.9167 14.9751 10.5247 16.6477C9.31153 18.1057 8.72185 19.9503 8.85291 21.8104H10.2325Z" fill="#9C9C9C"/>
<path d="M14.227 21.81C14.0918 21.2995 14.1718 20.7487 14.4625 20.2755C14.8272 19.6821 15.4365 19.3417 16.1344 19.3417C16.8313 19.3417 17.4398 19.6809 17.8038 20.2724C18.0956 20.7464 18.1764 21.2985 18.0414 21.81H19.4444C19.5604 21.0423 19.4021 20.2459 18.9748 19.5516C18.3639 18.5592 17.3021 17.9668 16.1344 17.9668C14.9653 17.9668 13.9024 18.5609 13.2909 19.5559C12.865 20.2489 12.7075 21.0438 12.8236 21.81H14.227V21.81Z" fill="#9C9C9C"/>
</g>
<defs>
<clipPath id="clip0_1192_7421">
<rect width="32" height="32" fill="white"/>
</clipPath>
</defs>
</svg>
