<svg width="32" height="32" viewBox="0 0 32 32" fill="none" xmlns="http://www.w3.org/2000/svg">
<g clip-path="url(#clip0_2260_6577)">
<path d="M16.0002 19.2818C19.2414 19.2818 21.8784 16.6448 21.8784 13.4036C21.8784 10.1623 19.2415 7.52539 16.0002 7.52539C12.759 7.52539 10.122 10.1623 10.122 13.4036C10.122 16.6448 12.759 19.2818 16.0002 19.2818ZM16.0002 8.90045C18.4833 8.90045 20.5034 10.9206 20.5034 13.4036C20.5034 15.8867 18.4833 17.9068 16.0002 17.9068C13.5172 17.9068 11.497 15.8867 11.497 13.4036C11.497 10.9206 13.5172 8.90045 16.0002 8.90045Z" fill="#9C9C9C"/>
<path d="M6.92077 28.1673C8.33233 24.4061 11.9809 21.879 15.9998 21.879C20.0187 21.879 23.6673 24.4061 25.0788 28.1673L26.3662 27.6842C25.5828 25.5968 24.2018 23.8115 22.3725 22.5214C20.5011 21.2015 18.2975 20.5039 15.9998 20.5039C13.7022 20.5039 11.4985 21.2015 9.62715 22.5214C7.7979 23.8115 6.4169 25.5968 5.63352 27.6842L6.92077 28.1673Z" fill="#9C9C9C"/>
<path d="M16 32C24.972 32 32 24.9719 32 16C32 7.02806 24.972 0 16 0C7.028 0 0 7.02806 0 16C0 24.9719 7.028 32 16 32ZM16 1.375C24.2009 1.375 30.625 7.79906 30.625 16C30.625 24.2009 24.2009 30.625 16 30.625C7.79906 30.625 1.375 24.2009 1.375 16C1.375 7.79906 7.79906 1.375 16 1.375Z" fill="#9C9C9C"/>
</g>
<defs>
<clipPath id="clip0_2260_6577">
<rect width="32" height="32" fill="white" transform="matrix(-1 0 0 1 32 0)"/>
</clipPath>
</defs>
</svg>
