<svg width="20" height="20" viewBox="0 0 20 20" fill="none" xmlns="http://www.w3.org/2000/svg">
<g clip-path="url(#clip0_348_7576)">
<mask id="mask0_348_7576" style="mask-type:luminance" maskUnits="userSpaceOnUse" x="0" y="0" width="20" height="21">
<path d="M0 0.00195694H20V20.002H0V0.00195694Z" fill="white"/>
</mask>
<g mask="url(#mask0_348_7576)">
<path d="M19.218 10.002C19.216 10.8241 19.2067 11.6462 19.1955 12.4683C19.1819 13.4601 19.1666 14.4524 18.9178 15.4272C18.657 16.4495 18.1425 17.3311 17.3421 17.9838C16.4987 18.6716 15.4793 19.0332 14.3789 19.1001C12.9196 19.1888 11.4596 19.2239 9.99961 19.2205C8.53961 19.2239 7.07961 19.1888 5.62027 19.1001C4.51996 19.0332 3.50051 18.6716 2.65707 17.9838C1.85668 17.3311 1.34223 16.4495 1.08137 15.4272C0.832618 14.4524 0.817305 13.4601 0.803751 12.4683C0.792501 11.6462 0.783164 10.8241 0.78125 10.002C0.783164 9.17985 0.792501 8.3577 0.803751 7.53563C0.817305 6.5438 0.832618 5.55153 1.08137 4.57669C1.34223 3.55442 1.85668 2.67278 2.65707 2.02009C3.50051 1.33227 4.51996 0.970749 5.62027 0.903835C7.07961 0.815085 8.53961 0.780007 9.99961 0.783444C11.4596 0.780007 12.9196 0.815085 14.3789 0.903835C15.4793 0.970749 16.4987 1.33227 17.3421 2.02009C18.1425 2.67278 18.657 3.55442 18.9178 4.57669C19.1666 5.55153 19.1819 6.5438 19.1955 7.53563C19.2067 8.3577 19.216 9.17985 19.218 10.002Z" stroke="#294C21" stroke-width="1.66016" stroke-miterlimit="10"/>
<path d="M14.0625 10C14.0625 12.2652 12.2262 14.1016 9.96094 14.1016C7.6957 14.1016 5.85938 12.2652 5.85938 10C5.85938 7.73477 7.6957 5.89844 9.96094 5.89844C12.2262 5.89844 14.0625 7.73477 14.0625 10Z" stroke="#294C21" stroke-width="1.66016" stroke-miterlimit="10"/>
<path d="M16.5615 4.72852C16.5615 5.3757 16.0368 5.90039 15.3896 5.90039C14.7425 5.90039 14.2178 5.3757 14.2178 4.72852C14.2178 4.08133 14.7425 3.55664 15.3896 3.55664C16.0368 3.55664 16.5615 4.08133 16.5615 4.72852Z" fill="#294C21"/>
</g>
</g>
<defs>
<clipPath id="clip0_348_7576">
<rect width="20" height="20" fill="white"/>
</clipPath>
</defs>
</svg>
