<svg width="24" height="24" viewBox="0 0 24 24" fill="none" xmlns="http://www.w3.org/2000/svg">
<path fill-rule="evenodd" clip-rule="evenodd" d="M12.179 16.7995C10.721 15.5706 9.79655 13.742 9.79655 11.7C9.79655 9.65804 10.721 7.82944 12.179 6.60054C10.9949 5.6025 9.45899 5 7.78067 5C4.0358 5 0.999979 7.99969 0.999979 11.7C0.999979 15.4003 4.0358 18.4 7.78067 18.4C9.45899 18.4 10.9949 17.7975 12.179 16.7995Z" fill="#2A2A2A"/>
<path opacity="0.7" fill-rule="evenodd" clip-rule="evenodd" d="M12.179 16.8004C13.6369 15.5715 14.5614 13.7429 14.5614 11.701C14.5614 9.65903 13.6369 7.83044 12.179 6.60154C10.7211 7.83044 9.79663 9.65903 9.79663 11.701C9.79663 13.7429 10.7211 15.5715 12.179 16.8004Z" fill="#2A2A2A"/>
<path opacity="0.3" fill-rule="evenodd" clip-rule="evenodd" d="M12.179 16.7995C13.6369 15.5706 14.5614 13.742 14.5614 11.7C14.5614 9.65804 13.6369 7.82944 12.179 6.60054C13.363 5.6025 14.8989 5 16.5772 5C20.3221 5 23.3579 7.99969 23.3579 11.7C23.3579 15.4003 20.3221 18.4 16.5772 18.4C14.8989 18.4 13.363 17.7975 12.179 16.7995Z" fill="#2A2A2A"/>
</svg>
