<svg width="33" height="32" viewBox="0 0 33 32" fill="none" xmlns="http://www.w3.org/2000/svg">
<g clip-path="url(#clip0_496_3040)">
<path d="M29.9064 26.8126C28.7143 26.8126 27.7081 27.6213 27.4059 28.7188H19.0004C18.7586 27.8405 18.0658 27.1476 17.1875 26.9058V23.4785C17.1875 23.0988 16.8797 22.791 16.5 22.791C16.1203 22.791 15.8125 23.0988 15.8125 23.4785V26.9058C14.9342 27.1476 14.2414 27.8405 13.9996 28.7188H5.59406C5.29194 27.6213 4.28575 26.8126 3.09363 26.8126C1.6635 26.8126 0.5 27.9761 0.5 29.4063C0.5 30.8364 1.6635 31.9999 3.09363 31.9999C4.28575 31.9999 5.29194 31.1912 5.59406 30.0938H13.9996C14.3017 31.1912 15.3079 31.9999 16.5 31.9999C17.6921 31.9999 18.6983 31.1912 19.0004 30.0938H27.4059C27.7081 31.1912 28.7143 31.9999 29.9064 31.9999C31.3365 31.9999 32.5 30.8364 32.5 29.4063C32.5 27.9761 31.3365 26.8126 29.9064 26.8126ZM3.09363 30.6249C2.42169 30.6249 1.875 30.0782 1.875 29.4063C1.875 28.7343 2.42169 28.1876 3.09363 28.1876C3.76556 28.1876 4.31225 28.7343 4.31225 29.4063C4.31225 30.0782 3.76556 30.6249 3.09363 30.6249ZM16.5 30.6249C15.8281 30.6249 15.2814 30.0782 15.2814 29.4063C15.2814 28.7343 15.8281 28.1876 16.5 28.1876C17.1719 28.1876 17.7186 28.7343 17.7186 29.4063C17.7186 30.0782 17.1719 30.6249 16.5 30.6249ZM29.9064 30.6249C29.2344 30.6249 28.6877 30.0782 28.6877 29.4063C28.6877 28.7343 29.2344 28.1876 29.9064 28.1876C30.5783 28.1876 31.125 28.7343 31.125 29.4063C31.125 30.0782 30.5783 30.6249 29.9064 30.6249Z" fill="#9C9C9C"/>
<path d="M25.8199 7.08969C25.6998 6.81612 25.5329 6.56256 25.3291 6.35794L19.7063 0.710688C19.2576 0.260125 18.6316 0 17.9959 0H9.56091C8.13079 0 6.96729 1.1635 6.96729 2.59363V21.2249C6.96729 22.6551 8.13079 23.8186 9.56091 23.8186H23.4391C24.8692 23.8186 26.0327 22.6551 26.0327 21.2249C26.0327 21.2249 26.0327 8.07113 26.0327 8.06069C26.0327 7.73956 25.9568 7.40162 25.8199 7.08969ZM23.69 6.66044H19.4007V2.3525L23.69 6.66044ZM24.6577 21.2249C24.6577 21.8969 24.111 22.4436 23.439 22.4436H9.56091C8.88897 22.4436 8.34229 21.8969 8.34229 21.2249V2.59363C8.34229 1.92169 8.88897 1.375 9.56091 1.375H17.996C18.006 1.375 18.0158 1.37631 18.0258 1.37656V7.34794C18.0258 7.72762 18.3336 8.03544 18.7133 8.03544H24.6564C24.6566 8.04387 24.6578 8.05225 24.6578 8.06069V21.2249H24.6577Z" fill="#9C9C9C"/>
<path d="M21.4556 11.8633H11.5444C11.1647 11.8633 10.8569 11.5555 10.8569 11.1758C10.8569 10.7961 11.1647 10.4883 11.5444 10.4883H21.4556C21.8352 10.4883 22.1431 10.7961 22.1431 11.1758C22.1431 11.5555 21.8352 11.8633 21.4556 11.8633Z" fill="#9C9C9C"/>
<path d="M14.5553 15.6758H11.5449C11.1652 15.6758 10.8574 15.368 10.8574 14.9883C10.8574 14.6086 11.1652 14.3008 11.5449 14.3008H14.5553C14.935 14.3008 15.2428 14.6086 15.2428 14.9883C15.2428 15.368 14.935 15.6758 14.5553 15.6758Z" fill="#9C9C9C"/>
<path d="M21.4552 15.6758H18.4448C18.0651 15.6758 17.7573 15.368 17.7573 14.9883C17.7573 14.6086 18.0651 14.3008 18.4448 14.3008H21.4552C21.8349 14.3008 22.1427 14.6086 22.1427 14.9883C22.1427 15.368 21.8349 15.6758 21.4552 15.6758Z" fill="#9C9C9C"/>
</g>
<defs>
<clipPath id="clip0_496_3040">
<rect width="32" height="32" fill="white" transform="translate(0.5)"/>
</clipPath>
</defs>
</svg>
