<svg width="32" height="32" viewBox="0 0 32 32" fill="none" xmlns="http://www.w3.org/2000/svg">
<g clip-path="url(#clip0_2260_6562)">
<path d="M10.5779 18.0403C10.5779 17.1989 10.1419 16.0474 8.06467 15.3391C7.34969 15.0953 6.49743 14.6581 6.49743 13.9599C6.49743 13.22 7.0994 12.6181 7.83921 12.6181C8.19591 12.6181 8.53382 12.7585 8.79083 13.0134C9.06467 13.285 9.50689 13.2831 9.77851 13.0093C10.0501 12.7355 10.0484 12.2932 9.77445 12.0216C9.4248 11.6748 8.99959 11.4333 8.53763 11.3118V10.8996C8.53763 10.5139 8.22493 10.2012 7.83921 10.2012C7.4535 10.2012 7.1408 10.5139 7.1408 10.8996V11.3118C5.96797 11.6214 5.10061 12.6911 5.10061 13.9599C5.10061 14.8012 5.53661 15.9528 7.61382 16.6611C8.32874 16.9049 9.18105 17.3421 9.18105 18.0403C9.18105 18.7802 8.57915 19.3821 7.83928 19.3821C6.95363 19.3821 6.19991 18.9099 6.1794 18.8969C5.85699 18.6875 5.42562 18.7782 5.21477 19.1002C5.00347 19.4228 5.09382 19.8557 5.41655 20.067C5.45274 20.0907 6.16359 20.5493 7.14093 20.7176V21.1006C7.14093 21.4863 7.45363 21.799 7.83934 21.799C8.22505 21.799 8.53775 21.4863 8.53775 21.1006V20.6883C9.71051 20.3787 10.5779 19.309 10.5779 18.0403Z" fill="#9C9C9C"/>
<path d="M31.3018 14.5812H18.1169C17.7312 14.5812 17.4185 14.2685 17.4185 13.8828V0.698432C17.4185 0.497098 17.5054 0.305543 17.6568 0.172908C17.8083 0.0402729 18.0097 -0.0205526 18.2092 0.0061776C25.3704 0.96186 31.0389 6.63018 31.994 13.7905C32.0206 13.9901 31.9599 14.1914 31.8272 14.3429C31.6946 14.4944 31.5031 14.5812 31.3018 14.5812ZM18.8153 13.1844H30.4819C29.3639 7.2851 24.7154 2.63684 18.8153 1.51837V13.1844Z" fill="#9C9C9C"/>
<path d="M28.2873 25.9508C28.1027 25.9508 27.9249 25.8777 27.7935 25.7463L20.5201 18.4756C20.3203 18.2758 20.2605 17.9754 20.3686 17.7144C20.4767 17.4534 20.7314 17.2832 21.0139 17.2832H31.3017C31.503 17.2832 31.6946 17.3701 31.8272 17.5216C31.9598 17.6731 32.0206 17.8745 31.9939 18.0741C31.6262 20.8261 30.5365 23.4547 28.8426 25.6759C28.7205 25.8361 28.5351 25.9357 28.334 25.9492C28.3184 25.9503 28.3027 25.9508 28.2873 25.9508ZM22.7004 18.68L28.2006 24.1783C29.3294 22.5176 30.1074 20.642 30.4813 18.68H22.7004Z" fill="#9C9C9C"/>
<path d="M16.0663 32C7.2073 32 0 24.792 0 15.9321C0 12.017 1.42648 8.24433 4.0167 5.3089C6.58368 2.39976 10.1038 0.516523 13.9286 0.00611065C14.1283 -0.020429 14.3295 0.0402694 14.481 0.172841C14.6325 0.305476 14.7194 0.497031 14.7194 0.698365V15.9321C14.7194 16.2939 14.8591 16.6335 15.1129 16.8887L25.8838 27.6566C26.0262 27.7989 26.1003 27.9959 26.0869 28.1968C26.0736 28.3977 25.9742 28.5831 25.8142 28.7054C22.9941 30.8607 19.6234 32 16.0663 32ZM13.3226 1.5183C6.46965 2.8183 1.39683 8.87817 1.39683 15.9321C1.39683 24.0218 7.97752 30.6031 16.0663 30.6031C19.0453 30.6031 21.8811 29.7281 24.3166 28.0649L14.124 17.8751C13.6067 17.3551 13.3226 16.6655 13.3226 15.9321V1.5183Z" fill="#9C9C9C"/>
</g>
<defs>
<clipPath id="clip0_2260_6562">
<rect width="32" height="32" fill="white"/>
</clipPath>
</defs>
</svg>
