<svg width="18" height="16" viewBox="0 0 18 16" fill="none" xmlns="http://www.w3.org/2000/svg">
<path d="M12.3334 4.66667V2.16667H5.66675V4.66667H4.00008V0.5H14.0001V4.66667H12.3334ZM2.33341 6.33333H15.6667H4.00008H2.33341ZM14.0001 8.41667C14.2362 8.41667 14.434 8.33667 14.5934 8.17667C14.7534 8.01722 14.8334 7.81944 14.8334 7.58333C14.8334 7.34722 14.7534 7.14917 14.5934 6.98917C14.434 6.82972 14.2362 6.75 14.0001 6.75C13.764 6.75 13.5662 6.82972 13.4067 6.98917C13.2467 7.14917 13.1667 7.34722 13.1667 7.58333C13.1667 7.81944 13.2467 8.01722 13.4067 8.17667C13.5662 8.33667 13.764 8.41667 14.0001 8.41667ZM12.3334 13.8333V10.5H5.66675V13.8333H12.3334ZM14.0001 15.5H4.00008V12.1667H0.666748V7.16667C0.666748 6.45833 0.909804 5.86472 1.39591 5.38583C1.88203 4.90639 2.4723 4.66667 3.16675 4.66667H14.8334C15.5417 4.66667 16.1356 4.90639 16.6151 5.38583C17.094 5.86472 17.3334 6.45833 17.3334 7.16667V12.1667H14.0001V15.5ZM15.6667 10.5V7.16667C15.6667 6.93056 15.5867 6.7325 15.4267 6.5725C15.2673 6.41305 15.0695 6.33333 14.8334 6.33333H3.16675C2.93064 6.33333 2.73258 6.41305 2.57258 6.5725C2.41314 6.7325 2.33341 6.93056 2.33341 7.16667V10.5H4.00008V8.83333H14.0001V10.5H15.6667Z" fill="#2A2A2A"/>
</svg>
