<svg width="20" height="20" viewBox="0 0 20 20" fill="none" xmlns="http://www.w3.org/2000/svg">
<path d="M18.0918 16.9075L15.0002 13.8409C16.2002 12.3445 16.7814 10.4453 16.6242 8.5336C16.4669 6.62194 15.5832 4.84317 14.1548 3.56306C12.7263 2.28294 10.8617 1.59878 8.94427 1.65125C7.02686 1.70371 5.20243 2.48882 3.84612 3.84514C2.4898 5.20146 1.70469 7.02589 1.65222 8.94329C1.59976 10.8607 2.28392 12.7253 3.56403 14.1538C4.84415 15.5822 6.62292 16.466 8.53458 16.6232C10.4462 16.7804 12.3455 16.1993 13.8418 14.9992L16.9085 18.0659C16.986 18.144 17.0781 18.206 17.1797 18.2483C17.2812 18.2906 17.3902 18.3124 17.5002 18.3124C17.6102 18.3124 17.7191 18.2906 17.8206 18.2483C17.9222 18.206 18.0144 18.144 18.0918 18.0659C18.242 17.9105 18.326 17.7028 18.326 17.4867C18.326 17.2706 18.242 17.0629 18.0918 16.9075ZM9.16683 14.9992C8.01311 14.9992 6.88529 14.6571 5.926 14.0161C4.96672 13.3751 4.21904 12.4641 3.77753 11.3982C3.33602 10.3323 3.2205 9.15938 3.44558 8.02783C3.67066 6.89627 4.22624 5.85687 5.04204 5.04107C5.85785 4.22526 6.89725 3.66969 8.0288 3.44461C9.16036 3.21953 10.3332 3.33505 11.3992 3.77656C12.4651 4.21807 13.3761 4.96574 14.0171 5.92503C14.658 6.88432 15.0002 8.01213 15.0002 9.16585C15.0002 10.713 14.3856 12.1967 13.2916 13.2906C12.1977 14.3846 10.7139 14.9992 9.16683 14.9992Z" fill="#2A2A2A"/>
</svg>
