<svg width="22" height="22" viewBox="0 0 22 22" fill="none" xmlns="http://www.w3.org/2000/svg">
<circle cx="2.75" cy="2.75" r="2.75" transform="matrix(-1 0 0 1 13.75 8.25)" stroke="#2A2A2A" stroke-width="1.375"/>
<path d="M15.1249 4.52793L14.7812 5.12332L15.1249 4.52793ZM15.1249 17.4765L14.7812 16.8811L15.1249 17.4765ZM6.87467 17.4765L6.53092 18.0719L6.87467 17.4765ZM6.87467 4.52793L6.53092 3.93254L6.87467 4.52793ZM8.17888 2.76632L7.50912 2.61119L8.17888 2.76632ZM8.74368 2.11567L8.91236 2.78216L8.74368 2.11567ZM4.86914 17.1813L4.71139 16.5122L4.86914 17.1813ZM4.03611 16.9639L4.55818 16.5166L4.03611 16.9639ZM8.74386 19.8896L8.91253 19.2231L8.74386 19.8896ZM8.17903 19.2387L7.50922 19.3937L8.17903 19.2387ZM13.8206 19.2388L14.4904 19.3937L13.8206 19.2388ZM13.2557 19.8896L13.4244 20.5561L13.2557 19.8896ZM17.1306 17.1814L16.9728 17.8505L17.1306 17.1814ZM19.6568 7.98081L19.0077 8.20737L19.6568 7.98081ZM19.3358 8.87972L18.8986 8.34908L19.3358 8.87972ZM4.86954 4.8232L4.71188 5.49238L4.86954 4.8232ZM19.3355 13.1267L19.7727 12.5961L19.3355 13.1267ZM13.8207 2.76629L13.1509 2.92142L13.8207 2.76629ZM13.1509 2.92142C13.3581 3.81569 13.9223 4.62744 14.7812 5.12332L15.4687 3.93254C14.9533 3.63498 14.6152 3.14979 14.4905 2.61117L13.1509 2.92142ZM14.7812 5.12332C15.5702 5.57888 16.4664 5.68592 17.2878 5.49235L16.9725 4.15401C16.4783 4.27045 15.9426 4.20613 15.4687 3.93254L14.7812 5.12332ZM20.3059 7.75426C19.8974 6.58376 19.2746 5.51448 18.485 4.59322L17.441 5.48799C18.121 6.28148 18.6566 7.20151 19.0077 8.20737L20.3059 7.75426ZM19.0206 11.0033C19.0206 10.3622 19.3124 9.78974 19.7729 9.41036L18.8986 8.34908C18.1346 8.97845 17.6456 9.93407 17.6456 11.0033H19.0206ZM19.7727 12.5961C19.3123 12.2167 19.0206 11.6444 19.0206 11.0033H17.6456C17.6456 12.0724 18.1345 13.0279 18.8983 13.6572L19.7727 12.5961ZM18.4857 17.4113C19.2746 16.4905 19.897 15.4219 20.3054 14.2523L19.0073 13.799C18.6563 14.8041 18.1211 15.7235 17.4415 16.5166L18.4857 17.4113ZM15.4687 18.0719C15.9427 17.7983 16.4785 17.734 16.9728 17.8505L17.2883 16.5122C16.4667 16.3185 15.5704 16.4255 14.7812 16.8811L15.4687 18.0719ZM14.4904 19.3937C14.615 18.8549 14.9532 18.3695 15.4687 18.0719L14.7812 16.8811C13.9221 17.3771 13.3577 18.1892 13.1508 19.0838L14.4904 19.3937ZM10.9999 20.8568C11.8356 20.8568 12.648 20.7526 13.4244 20.5561L13.0871 19.2231C12.4201 19.3919 11.721 19.4818 10.9999 19.4818V20.8568ZM8.57519 20.5561C9.35159 20.7526 10.1641 20.8568 10.9999 20.8568V19.4818C10.2787 19.4818 9.57956 19.3919 8.91253 19.2231L8.57519 20.5561ZM6.53092 18.0719C7.04643 18.3695 7.38455 18.8549 7.50922 19.3937L8.84883 19.0837C8.64184 18.1892 8.07754 17.3771 7.21842 16.8811L6.53092 18.0719ZM5.0269 17.8505C5.52112 17.734 6.05696 17.7983 6.53092 18.0719L7.21842 16.8811C6.42925 16.4255 5.53295 16.3185 4.71139 16.5122L5.0269 17.8505ZM1.69429 14.2522C2.10272 15.4219 2.7251 16.4905 3.51405 17.4112L4.55818 16.5166C3.87865 15.7235 3.34341 14.8041 2.99243 13.7989L1.69429 14.2522ZM2.97904 11.0033C2.97904 11.6443 2.68742 12.2167 2.22703 12.5961L3.10146 13.6572C3.86521 13.0278 4.35404 12.0724 4.35404 11.0033H2.97904ZM2.22681 9.41039C2.68732 9.78977 2.97904 10.3622 2.97904 11.0033H4.35404C4.35404 9.9341 3.86506 8.97851 3.10109 8.34913L2.22681 9.41039ZM3.51468 4.59326C2.72514 5.51452 2.10236 6.58382 1.69383 7.75432L2.99203 8.20742C3.3431 7.20156 3.87868 6.28152 4.55872 5.48802L3.51468 4.59326ZM6.53092 3.93254C6.05706 4.20612 5.52133 4.27044 5.0272 4.15402L4.71188 5.49238C5.53331 5.68591 6.42941 5.57886 7.21842 5.12332L6.53092 3.93254ZM7.50912 2.61119C7.38436 3.14981 7.04629 3.63499 6.53092 3.93254L7.21842 5.12332C8.07729 4.62745 8.64153 3.81571 8.84865 2.92146L7.50912 2.61119ZM10.9999 1.14844C10.164 1.14844 9.35145 1.25267 8.57499 1.44919L8.91236 2.78216C9.57944 2.61332 10.2787 2.52344 10.9999 2.52344V1.14844ZM13.4246 1.44914C12.6482 1.25265 11.8357 1.14844 10.9999 1.14844V2.52344C11.721 2.52344 12.4202 2.61331 13.0872 2.78212L13.4246 1.44914ZM8.84865 2.92146C8.86297 2.85963 8.88722 2.81603 8.90602 2.79316C8.92218 2.77351 8.92506 2.77895 8.91236 2.78216L8.57499 1.44919C7.94158 1.6095 7.61444 2.15646 7.50912 2.61119L8.84865 2.92146ZM3.10109 8.34913C3.04527 8.30315 3.01283 8.25341 2.99981 8.22013C2.98886 8.19215 2.99692 8.1934 2.99203 8.20742L1.69383 7.75432C1.45004 8.45282 1.82788 9.08175 2.22681 9.41039L3.10109 8.34913ZM4.71139 16.5122C4.64976 16.5267 4.60003 16.5243 4.57119 16.5176C4.54639 16.5118 4.5498 16.5068 4.55818 16.5166L3.51405 17.4112C3.93847 17.9065 4.57267 17.9576 5.0269 17.8505L4.71139 16.5122ZM8.91253 19.2231C8.92523 19.2263 8.92235 19.2317 8.90619 19.2121C8.88738 19.1892 8.86314 19.1456 8.84883 19.0837L7.50922 19.3937C7.61447 19.8486 7.94161 20.3957 8.57519 20.5561L8.91253 19.2231ZM13.1508 19.0838C13.1365 19.1456 13.1122 19.1892 13.0934 19.2121C13.0772 19.2318 13.0744 19.2263 13.0871 19.2231L13.4244 20.5561C14.058 20.3958 14.3851 19.8486 14.4904 19.3937L13.1508 19.0838ZM17.4415 16.5166C17.4499 16.5068 17.4533 16.5119 17.4285 16.5176C17.3997 16.5243 17.35 16.5267 17.2883 16.5122L16.9728 17.8505C17.427 17.9576 18.0612 17.9066 18.4857 17.4113L17.4415 16.5166ZM19.0077 8.20737C19.0028 8.19335 19.0109 8.1921 18.9999 8.22008C18.9869 8.25336 18.9545 8.3031 18.8986 8.34908L19.7729 9.41036C20.1718 9.08172 20.5497 8.45278 20.3059 7.75426L19.0077 8.20737ZM2.99243 13.7989C2.99732 13.8129 2.98926 13.8142 3.0002 13.7862C3.01322 13.7529 3.04565 13.7032 3.10146 13.6572L2.22703 12.5961C1.82815 12.9248 1.4504 13.5537 1.69429 14.2522L2.99243 13.7989ZM17.2878 5.49235C17.3494 5.47784 17.3992 5.48023 17.428 5.48694C17.4528 5.49272 17.4494 5.49776 17.441 5.48799L18.485 4.59322C18.0607 4.09805 17.4266 4.04699 16.9725 4.15401L17.2878 5.49235ZM4.55872 5.48802C4.55035 5.49779 4.54694 5.49275 4.57173 5.48697C4.60056 5.48026 4.65028 5.47787 4.71188 5.49238L5.0272 4.15402C4.57305 4.04703 3.93904 4.0981 3.51468 4.59326L4.55872 5.48802ZM18.8983 13.6572C18.9541 13.7032 18.9865 13.753 18.9995 13.7863C19.0105 13.8142 19.0024 13.813 19.0073 13.799L20.3054 14.2523C20.5493 13.5538 20.1716 12.9248 19.7727 12.5961L18.8983 13.6572ZM14.4905 2.61117C14.3852 2.15643 14.058 1.60945 13.4246 1.44914L13.0872 2.78212C13.0745 2.77891 13.0774 2.77348 13.0936 2.79312C13.1124 2.81599 13.1366 2.8596 13.1509 2.92142L14.4905 2.61117Z" fill="#2A2A2A"/>
</svg>
