<svg width="18" height="22" viewBox="0 0 18 22" fill="none" xmlns="http://www.w3.org/2000/svg">
<path d="M14.5933 6.23941H12.4578C12.026 6.23941 11.6754 6.58 11.6754 7.00078C11.6754 7.42156 12.026 7.76215 12.4578 7.76215H14.5938C15.0252 7.76215 15.3762 8.10375 15.3762 8.52352V18.4802C15.3762 18.9 15.0252 19.2416 14.5938 19.2416H2.8321C2.40073 19.2416 2.04969 18.9 2.04969 18.4802V8.52352C2.04969 8.10375 2.40073 7.76215 2.8321 7.76215H4.96808C5.40049 7.76215 5.75049 7.42156 5.75049 7.00078C5.75049 6.58 5.40049 6.23941 4.96808 6.23941H2.8321C1.53799 6.23941 0.484863 7.26421 0.484863 8.52352V18.4802C0.484863 19.7395 1.53799 20.7643 2.8321 20.7643H14.5938C15.8879 20.7643 16.9411 19.7395 16.9411 18.4802V8.52352C16.9405 7.26371 15.8879 6.23941 14.5933 6.23941ZM5.79535 4.70247L7.95637 2.59957V12.6232C7.95637 13.0435 8.30637 13.3846 8.73878 13.3846C9.17119 13.3846 9.52119 13.0435 9.52119 12.6232V2.59957L11.6822 4.70247C11.835 4.85119 12.0353 4.92529 12.2356 4.92529C12.4359 4.92529 12.6362 4.85119 12.7891 4.70247C13.0947 4.40553 13.0947 3.92282 12.7891 3.62589L9.29273 0.223081C8.98654 -0.0743603 8.49154 -0.0743603 8.18588 0.223081L4.68902 3.62589C4.38336 3.92282 4.38336 4.40553 4.68902 4.70247C4.99468 4.99991 5.48969 4.99991 5.79535 4.70247Z" fill="#474747"/>
</svg>
