<svg width="20" height="20" viewBox="0 0 20 20" fill="none" xmlns="http://www.w3.org/2000/svg">
<g clip-path="url(#clip0_348_7592)">
<path d="M9.99114 1.4387C12.6754 1.43959 14.9113 3.6743 14.9146 6.36504C14.9153 6.99527 14.9348 7.57562 14.9704 8.11023C14.9923 8.44008 15.2666 8.68452 15.5812 8.68452C15.6276 8.68452 15.6748 8.67922 15.7222 8.66812L16.563 8.47099C16.5988 8.46258 16.6347 8.45857 16.6702 8.45857C16.8838 8.45857 17.0804 8.60449 17.1284 8.82061C17.1962 9.12603 17.0251 9.43461 16.7291 9.53838L15.4527 10.0537C15.1305 10.1837 14.9574 10.5345 15.0481 10.8699C16.0722 14.6558 18.9324 14.2621 18.9324 14.7553C18.9324 15.3747 16.7765 15.4622 16.5817 15.657C16.387 15.8518 16.5733 16.7972 16.1381 16.9803C16.0561 17.0148 15.9395 17.0268 15.7974 17.0268C15.4696 17.0268 15.006 16.9628 14.5173 16.9628C14.0935 16.9628 13.6508 17.0109 13.2617 17.1907C12.2293 17.6676 11.2339 18.5584 10 18.5584C8.76613 18.5584 7.77078 17.6676 6.73837 17.1907C6.34912 17.0109 5.90658 16.9628 5.4827 16.9628C4.99412 16.9628 4.53044 17.0268 4.20268 17.0268C4.06061 17.0268 3.94394 17.0147 3.86195 16.9803C3.42675 16.7972 3.61307 15.8518 3.41829 15.657C3.22352 15.4622 1.0676 15.3747 1.0676 14.7553C1.0676 14.262 3.92788 14.6557 4.95193 10.8699C5.04267 10.5345 4.86959 10.1837 4.5473 10.0536L3.27088 9.53834C2.9749 9.43457 2.80378 9.12599 2.8716 8.82057C2.91955 8.6044 3.1162 8.45848 3.32977 8.45852C3.36521 8.45852 3.40117 8.46254 3.43695 8.47095L4.27784 8.66807C4.32524 8.67918 4.37243 8.68447 4.41877 8.68447C4.73332 8.68447 5.0077 8.43999 5.02965 8.11019C5.06522 7.57558 5.08469 6.99523 5.08546 6.365C5.08871 3.6743 7.30684 1.43964 9.99114 1.4387ZM9.99148 0.371094H9.9911H9.99071C9.1895 0.37135 8.40899 0.532344 7.67098 0.849636C6.96256 1.15416 6.32499 1.58837 5.77599 2.14024C5.22771 2.69138 4.79623 3.33121 4.49354 4.04198C4.17881 4.78106 4.01876 5.5622 4.01777 6.36372C4.0173 6.75724 4.00915 7.13914 3.99343 7.50486L3.68058 7.43149C3.56579 7.40459 3.44776 7.39092 3.32985 7.39088C2.98937 7.39084 2.65351 7.50592 2.38413 7.71492C2.10309 7.93297 1.90601 8.24347 1.82927 8.58924C1.64663 9.41228 2.10108 10.2432 2.88863 10.5354L3.82543 10.9135C3.20511 12.8175 2.06128 13.1824 1.29103 13.4281C1.08665 13.4933 0.91011 13.5497 0.742027 13.6331C0.072298 13.9655 0 14.5286 0 14.7553C0 15.1895 0.205492 15.5857 0.578683 15.8709C0.764489 16.0129 0.994664 16.1301 1.28232 16.2291C1.67439 16.3641 2.12889 16.4498 2.49828 16.5185C2.51613 16.6553 2.5423 16.8024 2.58642 16.9505C2.76958 17.5659 3.15609 17.8415 3.4481 17.9643C3.72516 18.0808 4.01145 18.0943 4.20268 18.0943C4.38973 18.0943 4.58745 18.0796 4.79678 18.0641C5.02136 18.0475 5.25359 18.0303 5.4827 18.0303C5.83774 18.0303 6.10203 18.0727 6.29066 18.1598C6.54966 18.2794 6.82433 18.4408 7.11515 18.6116C7.92473 19.087 8.84231 19.6259 10 19.6259C11.1577 19.6259 12.0753 19.087 12.8849 18.6116C13.1757 18.4407 13.4503 18.2794 13.7094 18.1598C13.898 18.0726 14.1623 18.0303 14.5173 18.0303C14.7465 18.0303 14.9787 18.0475 15.2032 18.0641C15.4126 18.0796 15.6103 18.0943 15.7973 18.0943C15.9885 18.0943 16.2748 18.0808 16.5519 17.9643C16.8439 17.8415 17.2304 17.5659 17.4136 16.9505C17.4577 16.8024 17.4839 16.6553 17.5017 16.5185C17.8711 16.4497 18.3257 16.3641 18.7177 16.2291C19.0054 16.1301 19.2355 16.0129 19.4213 15.8709C19.7945 15.5857 20 15.1895 20 14.7553C20 14.5286 19.9277 13.9655 19.2579 13.6331C19.0898 13.5497 18.9133 13.4934 18.7089 13.4282C17.9386 13.1825 16.7948 12.8175 16.1745 10.9135L17.1112 10.5354C17.8988 10.2432 18.3533 9.41228 18.1706 8.58924C18.0939 8.24347 17.8968 7.93297 17.6158 7.71492C17.3464 7.50597 17.0106 7.39088 16.6702 7.39088C16.5523 7.39088 16.4343 7.40455 16.3194 7.43145L16.0065 7.50481C15.9908 7.13914 15.9827 6.75724 15.9822 6.36368C15.9812 5.56152 15.8199 4.77961 15.5026 4.03955C15.1981 3.32912 14.7643 2.68946 14.2132 2.13828C13.6622 1.58714 13.0228 1.15339 12.313 0.849123C11.5735 0.532216 10.7925 0.371393 9.99148 0.371094Z" fill="#294C21" stroke="#294C21" stroke-width="0.457112"/>
</g>
<defs>
<clipPath id="clip0_348_7592">
<rect width="20" height="20" fill="white"/>
</clipPath>
</defs>
</svg>
