<svg width="12" height="8" viewBox="0 0 12 8" fill="none" xmlns="http://www.w3.org/2000/svg">
<path d="M5.39868 0.934293L0.690346 5.65096C0.612239 5.72843 0.550244 5.8206 0.507937 5.92215C0.46563 6.02369 0.443848 6.13262 0.443848 6.24263C0.443848 6.35264 0.46563 6.46156 0.507937 6.56311C0.550244 6.66466 0.612239 6.75682 0.690346 6.83429C0.846482 6.9895 1.05769 7.07662 1.27785 7.07662C1.498 7.07662 1.70921 6.9895 1.86535 6.83429L6.03201 2.70929L10.157 6.83429C10.3131 6.9895 10.5244 7.07662 10.7445 7.07662C10.9647 7.07662 11.1759 6.9895 11.332 6.83429C11.4108 6.75711 11.4734 6.66508 11.5163 6.56351C11.5592 6.46195 11.5816 6.35288 11.582 6.24263C11.5816 6.13237 11.5592 6.0233 11.5163 5.92174C11.4734 5.82018 11.4108 5.72814 11.332 5.65096L6.62368 0.934293C6.54564 0.849706 6.45093 0.782198 6.34552 0.736026C6.2401 0.689853 6.12626 0.666016 6.01118 0.666016C5.89609 0.666016 5.78226 0.689853 5.67684 0.736026C5.57142 0.782198 5.47672 0.849706 5.39868 0.934293Z" fill="white"/>
</svg>
