<svg width="12" height="12" viewBox="0 0 12 12" fill="none" xmlns="http://www.w3.org/2000/svg">
<path d="M4.08067 3.49785L5.4165 2.15618V7.75035C5.4165 7.90506 5.47796 8.05343 5.58736 8.16282C5.69675 8.27222 5.84513 8.33368 5.99984 8.33368C6.15455 8.33368 6.30292 8.27222 6.41232 8.16282C6.52171 8.05343 6.58317 7.90506 6.58317 7.75035V2.15618L7.919 3.49785C7.97323 3.55252 8.03775 3.59592 8.10883 3.62553C8.17992 3.65515 8.25616 3.6704 8.33317 3.6704C8.41018 3.6704 8.48642 3.65515 8.55751 3.62553C8.62859 3.59592 8.69311 3.55252 8.74734 3.49785C8.80201 3.44362 8.84541 3.3791 8.87502 3.30802C8.90464 3.23693 8.91989 3.16069 8.91989 3.08368C8.91989 3.00667 8.90464 2.93043 8.87502 2.85934C8.84541 2.78826 8.80201 2.72374 8.74734 2.66951L6.414 0.33618C6.35853 0.283073 6.29311 0.241443 6.2215 0.21368C6.07948 0.155336 5.92019 0.155336 5.77817 0.21368C5.70657 0.241443 5.64115 0.283073 5.58567 0.33618L3.25234 2.66951C3.19795 2.7239 3.1548 2.78847 3.12537 2.85953C3.09593 2.9306 3.08078 3.00676 3.08078 3.08368C3.08078 3.1606 3.09593 3.23676 3.12537 3.30783C3.1548 3.37889 3.19795 3.44346 3.25234 3.49785C3.30673 3.55224 3.3713 3.59538 3.44236 3.62481C3.51342 3.65425 3.58959 3.6694 3.6665 3.6694C3.74342 3.6694 3.81959 3.65425 3.89065 3.62481C3.96171 3.59538 4.02628 3.55224 4.08067 3.49785ZM11.2498 6.00035C11.0951 6.00035 10.9468 6.0618 10.8374 6.1712C10.728 6.2806 10.6665 6.42897 10.6665 6.58368V10.0837C10.6665 10.2384 10.605 10.3868 10.4956 10.4962C10.3863 10.6056 10.2379 10.667 10.0832 10.667H1.9165C1.76179 10.667 1.61342 10.6056 1.50402 10.4962C1.39463 10.3868 1.33317 10.2384 1.33317 10.0837V6.58368C1.33317 6.42897 1.27171 6.2806 1.16232 6.1712C1.05292 6.0618 0.904547 6.00035 0.749837 6.00035C0.595128 6.00035 0.446754 6.0618 0.337358 6.1712C0.227962 6.2806 0.166504 6.42897 0.166504 6.58368V10.0837C0.166504 10.5478 0.350878 10.9929 0.679067 11.3211C1.00726 11.6493 1.45238 11.8337 1.9165 11.8337H10.0832C10.5473 11.8337 10.9924 11.6493 11.3206 11.3211C11.6488 10.9929 11.8332 10.5478 11.8332 10.0837V6.58368C11.8332 6.42897 11.7717 6.2806 11.6623 6.1712C11.5529 6.0618 11.4045 6.00035 11.2498 6.00035Z" fill="white"/>
</svg>
